<svg id="Layer_1" data-name="Layer 1" xmlns="http://www.w3.org/2000/svg" viewBox="0 0 450.53 241.37"><defs><style>.cls-1{fill:#e45028;}.cls-2{fill:#f9b43b;}</style></defs><title>drops</title><path class="cls-1" d="M88.63,55.4c-.34-.21,8.65-10.13,6.16-15.94-.63-6.7-10.43-6.73-14.56-15.13-5-10.73,4-17.62,11.4-16.58,8.1.82,16.47,8.52,18.6,16.6.92,4.87,1.86,10.73-3.64,17.43C102.38,48.56,89.84,54,88.63,55.4Z" transform="translate(0 0)"/><path class="cls-2" d="M166.26,26.6c-.23,0,2.8-7.12.37-9.79-1.59-3.51-6.91-1.66-10.71-5.41C151.17,6.56,154.81,1.1,159,.25c4.54-1.09,10.52,1.48,13.18,5.44,1.41,2.46,3,5.45,1.26,10.13C172.44,20.29,166.65,25.61,166.26,26.6Z" transform="translate(0 0)"/><path class="cls-2" d="M391,85.79c.3.08,1.07-10.27,5.55-12,4-3.25,9.1,2.21,15.85,0,8.52-3,7.59-11.71,3.19-15.28-4.65-4.08-13.22-4.62-18.76-1.47-3.15,2.1-6.85,4.73-7.67,11.4C387.6,74.44,391.13,84.35,391,85.79Z" transform="translate(0 0)"/><path class="cls-1" d="M413.54,222.7c.14.27,8.39-5.73,12.71-3.49,5.13.93,4.5,8.22,10.71,11.86,8,4.5,13.87-1.77,13.56-7.34-.1-6.07-5.49-12.82-11.59-15-3.7-1-8.16-2.11-13.69,1.52C419.72,213,414.71,221.9,413.54,222.7Z" transform="translate(0 0)"/><path class="cls-2" d="M48,223.17c0,.23-7.64-.58-9.47,2.53-2.88,2.55.46,7.09-2,11.84-3.23,6-9.51,4.09-11.56.32-2.39-4-1.7-10.48,1.3-14.2,1.94-2.07,4.32-4.48,9.3-4.19C40.11,219.12,46.91,223.08,48,223.17Z" transform="translate(0 0)"/><path class="cls-1" d="M50.72,113.4c-.06.44-14.1-4.43-18.94.53-6.56,3.46-2.31,13.35-9.06,21.06C14,144.62,3,138.39.82,130.51c-2.7-8.51,1.49-20.2,8.8-25.76,4.56-3,10.13-6.4,19.36-3.69C37.74,102.44,48.76,112.78,50.72,113.4Z" transform="translate(0 0)"/></svg>